<svg xmlns="http://www.w3.org/2000/svg" xmlns:xlink="http://www.w3.org/1999/xlink" viewBox="0 0 60 45" version="1.1" x="0px" y="0px"><title>086.Measure</title><desc>Created with Sketch.</desc><g stroke="none" stroke-width="1" fill="none" fill-rule="evenodd" stroke-linecap="round" stroke-linejoin="round"><g transform="translate(1.000000, 1.000000)" stroke="#000000" stroke-width="2"><polygon points="0 34 58 34 58 22 0 22"/><path d="M0,17 L0,0"/><path d="M58,17 L58,0"/><path d="M56,9 L51,3"/><path d="M51,15 L56,9"/><path d="M51,3 L51,15"/><path d="M51,9 L7,9"/><path d="M7,2.9988 L7,14.9998"/><path d="M7,3 L2,9"/><path d="M7,15 L2,9"/><path d="M53.0016,22 L53.0006,25"/><path d="M47.0002,22 L47.0002,27"/><path d="M41.0002,25 L41.0002,22"/><path d="M35,22 L35,27"/><path d="M29,22 L29,25"/><path d="M23,22 L23,27"/><path d="M17.0002,22 L17.0002,25"/><path d="M11.0001,22 L11.0001,27"/><path d="M5.0001,22 L4.9991,25"/></g></g><text x="0" y="51" fill="#000000" font-size="5px" font-weight="bold" font-family="'Helvetica Neue', Helvetica, Arial-Unicode, Arial, Sans-serif">Created by Creaticca Creative Agency</text><text x="0" y="56" fill="#000000" font-size="5px" font-weight="bold" font-family="'Helvetica Neue', Helvetica, Arial-Unicode, Arial, Sans-serif">from the Noun Project</text></svg>