<svg xmlns="http://www.w3.org/2000/svg" xmlns:xlink="http://www.w3.org/1999/xlink" version="1.1" x="0px" y="0px" viewBox="0 0 90 112.5" enable-background="new 0 0 90 90" xml:space="preserve"><g><path d="M76.9,42.6l-0.5-0.5c0,0,0,0,0,0l-8.1-7.4c-0.6-0.6-1.5-0.6-2.1,0l-0.3,0.5c-0.6,0.6-0.4,1.5,0.2,2l4.8,4.3H47.5V18.2   l4.3,4.8c0.6,0.6,1.5,0.8,2,0.2l0.5-0.3c0.6-0.6,0.6-1.5,0-2.1l-7.1-7.7c-0.2-0.3-0.4-0.6-0.8-0.8L46.4,12c-0.3-0.3-0.6-0.4-1-0.4   c-0.4,0-0.7,0.1-1,0.4l-0.5,0.5c0,0,0,0,0,0l-7.2,8c-0.6,0.6-0.6,1.5,0,2.1l0.5,0.3c0.6,0.6,1.5,0.4,2-0.2l4.3-4.8v23.5H20l4.8-4.3   c0.6-0.6,0.8-1.5,0.2-2l-0.3-0.5c-0.6-0.6-1.5-0.6-2.1,0l-7.7,7.1c-0.3,0.2-0.6,0.4-0.8,0.8l-0.1,0.1c-0.3,0.3-0.4,0.6-0.4,1   c0,0.4,0.1,0.7,0.4,1l0.5,0.5c0,0,0,0,0,0l8,7.2c0.6,0.6,1.5,0.6,2.1,0l0.3-0.5c0.6-0.6,0.4-1.5-0.2-2l-4.8-4.3h23.7v23.6l-4.3-4.8   c-0.6-0.6-1.5-0.8-2-0.2l-0.5,0.3c-0.6,0.6-0.6,1.5,0,2.1l7.2,8c0,0,0,0,0,0l0.5,0.5c0.3,0.3,0.6,0.4,1,0.4c0.4,0,0.7-0.1,1-0.4   l0.5-0.5c0,0,0,0,0,0l7.4-8.1c0.6-0.6,0.6-1.5,0-2.1l-0.5-0.3c-0.6-0.6-1.5-0.4-2,0.2l-4.3,4.8V45.5h23.4l-4.8,4.3   c-0.6,0.6-0.8,1.5-0.2,2l0.3,0.5c0.6,0.6,1.5,0.6,2.1,0l8-7.2c0,0,0,0,0,0l0.5-0.5c0.3-0.3,0.4-0.6,0.4-1   C77.3,43.2,77.2,42.8,76.9,42.6z"/></g><text x="0" y="105" fill="#000000" font-size="5px" font-weight="bold" font-family="'Helvetica Neue', Helvetica, Arial-Unicode, Arial, Sans-serif">Created by Joseph Augustine</text><text x="0" y="110" fill="#000000" font-size="5px" font-weight="bold" font-family="'Helvetica Neue', Helvetica, Arial-Unicode, Arial, Sans-serif">from the Noun Project</text></svg>