<svg xmlns="http://www.w3.org/2000/svg" data-name="Layer 1" viewBox="0 0 32 40" x="0px" y="0px"><title>UI UX</title><path d="M30,1H2A1,1,0,0,0,1,2V30a1,1,0,0,0,1,1H30a1,1,0,0,0,1-1V2A1,1,0,0,0,30,1ZM29,29H3V3H29V29Z"/><path d="M19.28,13.95a1,1,0,0,0,.72-0.3l5.12-5.27v3.41a1,1,0,0,0,2,0V5.91h0A1,1,0,0,0,27,5.55s0,0,0,0h0a1,1,0,0,0-.22-0.32h0l-0.1-.06a0.71,0.71,0,0,0-.48-0.19l-0.12,0H20.36a1,1,0,0,0,0,2h3.39l-5.19,5.35A1,1,0,0,0,19.28,13.95Z"/><path d="M5,26.45a1,1,0,0,0,.14.22,0.93,0.93,0,0,0,.07.1h0a1,1,0,0,0,.71.3h5.87a1,1,0,1,0,0-2H8.4L13.67,20a1,1,0,1,0-1.39-1.44L6.93,23.71V20.32a1,1,0,0,0-2,0v5.75a0.94,0.94,0,0,0,0,.13A1,1,0,0,0,5,26.45Z"/><text x="0" y="47" fill="#000000" font-size="5px" font-weight="bold" font-family="'Helvetica Neue', Helvetica, Arial-Unicode, Arial, Sans-serif">Created by nico bayu saputro</text><text x="0" y="52" fill="#000000" font-size="5px" font-weight="bold" font-family="'Helvetica Neue', Helvetica, Arial-Unicode, Arial, Sans-serif">from the Noun Project</text></svg>